Patient4_TMGait_0pt2_03_right_02_GRF.mot
version=1
nRows=45
nColumns=19
inDegrees=no
endheader
time	F1x	F1y	F1z	M1x	M1y	M1z	F2x	F2y	F2z	M2x	M2y	M2z	EC1x	EC1y	EC1z	EC2x	EC2y	EC2z
4.13	-14.4667	850.2961	63.3101	-280.3328	-62.3933	838.2285	7.0334	4.7583	-1.1648	1.567	-0.7313	6.333	-0.0592	0.0182	-0.0073	-0.0462	0.0165	0.9585
4.1511	-14.1035	849.2155	61.9026	-279.3634	-60.5909	833.9148	4.5752	3.3852	-0.82455	1.1296	-0.3917	4.4302	-0.0592	0.0182	-0.0073	-0.0462	0.0165	0.9585
4.1721	-13.1138	844.9429	60.1142	-277.3645	-58.1425	825.8638	2.4844	2.2349	-0.5301	0.76312	-0.10703	2.8351	-0.0592	0.0182	-0.0073	-0.0462	0.0165	0.9585
4.1932	-11.3804	836.9155	57.8712	-274.2138	-54.9608	813.6433	0.88655	1.371	-0.30112	0.48776	0.10861	1.6366	-0.0592	0.0182	-0.0073	-0.0462	0.0165	0.9585
4.2143	-8.885	825.3071	55.1355	-270.0139	-51.0302	797.552	-0.22316	0.78198	-0.1398	0.2989	0.25939	0.81773	-0.0592	0.0182	-0.0073	-0.0462	0.0165	0.9585
4.2354	-5.6984	811.0027	51.9548	-265.0761	-46.4449	778.59	-0.91728	0.40906	-0.038533	0.17754	0.35653	0.29817	-0.0592	0.0182	-0.0073	-0.0462	0.0165	0.9585
4.2564	-1.9662	795.3572	48.4818	-259.8352	-41.4194	758.2194	-1.2961	0.17324	0.013891	0.0977	0.4163	-0.024157	-0.0592	0.0182	-0.0073	-0.0462	0.0165	0.9585
4.2775	2.1096	779.8349	44.9574	-254.7347	-36.2697	738.0152	-1.4584	-0.014771	0.028221	0.029019	0.45381	-0.2568	-0.0592	0.0182	-0.0073	-0.0462	0.0165	0.9585
4.2986	6.2917	765.7256	41.6593	-250.1462	-31.3573	719.3805	-1.4867	-0.24648	0.013999	-0.059892	0.48023	-0.5064	-0.0592	0.0182	-0.0073	-0.0462	0.0165	0.9585
4.3196	10.3482	754.0213	38.8371	-246.3473	-27.0117	703.3995	-1.4418	-0.60704	-0.018318	-0.19806	0.49924	-0.87266	-0.0592	0.0182	-0.0073	-0.0462	0.0165	0.9585
4.3407	14.1095	745.3811	36.6482	-243.5209	-23.4473	690.7827	-1.3594	-1.1643	-0.056243	-0.41006	0.50583	-1.4361	-0.0592	0.0182	-0.0073	-0.0462	0.0165	0.9585
4.3618	17.4854	740.1063	35.1492	-241.7511	-20.7485	681.8411	-1.2501	-1.9557	-0.086075	-0.70965	0.48951	-2.2412	-0.0592	0.0182	-0.0073	-0.0462	0.0165	0.9585
4.3829	20.4389	738.1021	34.3417	-241.0022	-18.9221	676.4731	-1.1073	-2.9661	-0.091564	-1.0913	0.43225	-3.2747	-0.0592	0.0182	-0.0073	-0.0462	0.0165	0.9585
4.4039	22.9671	738.8953	34.2016	-241.1209	-17.934	674.2011	-0.91357	-4.0968	-0.053544	-1.5179	0.30996	-4.4377	-0.0592	0.0182	-0.0073	-0.0462	0.0165	0.9585
4.425	25.0878	741.7198	34.6788	-241.8571	-17.7144	674.2599	-0.64394	-5.1313	0.048636	-1.9075	0.09425	-5.5122	-0.0592	0.0182	-0.0073	-0.0462	0.0165	0.9585
4.4461	26.8181	745.6528	35.6918	-242.9065	-18.1605	675.7344	-0.27199	-5.6942	0.23701	-2.1179	-0.24399	-6.1009	-0.0592	0.0182	-0.0073	-0.0462	0.0165	0.9585
4.4671	28.1682	749.7804	37.1308	-243.9698	-19.1431	677.7127	0.22255	-5.2158	0.5313	-1.9349	-0.72567	-5.5978	-0.0592	0.0182	-0.0073	-0.0462	0.0165	0.9585
4.4882	29.1714	753.3381	38.8548	-244.8104	-20.5001	679.4041	0.83899	-2.9098	0.94271	-1.0643	-1.3526	-3.1708	-0.0592	0.0182	-0.0073	-0.0462	0.0165	0.9585
4.5093	29.9064	755.711	40.7028	-245.2524	-22.0435	680.1435	1.5365	2.1987	1.4628	0.85899	-2.0917	2.2075	-0.0592	0.0182	-0.0073	-0.0462	0.0165	0.9585
4.5304	30.4508	756.2692	42.507	-245.115	-23.5864	679.2838	2.2105	11.1851	2.045	4.2384	-2.8468	11.6658	-0.0592	0.0182	-0.0073	-0.0462	0.0165	0.9585
4.5514	30.8121	754.1823	44.1007	-244.1411	-24.9729	676.0578	2.663	25.031	2.5872	9.4415	-3.4304	26.2289	-0.0592	0.0182	-0.0073	-0.0462	0.0165	0.9585
4.5725	30.9128	748.3502	45.3341	-241.9674	-26.0993	669.5213	2.5793	44.2826	2.9102	16.6734	-3.5355	46.4586	-0.0592	0.0182	-0.0073	-0.0462	0.0165	0.9585
4.5936	30.622	737.5345	46.081	-238.1691	-26.9065	658.6529	1.5398	68.5623	2.7408	25.7906	-2.7267	71.9457	-0.0592	0.0182	-0.0073	-0.0462	0.0165	0.9585
4.6146	29.8288	720.7288	46.2557	-232.3947	-27.3656	642.6492	-0.66925	96.1769	1.7674	36.141	-0.61921	100.9203	-0.0592	0.0182	-0.0073	-0.0462	0.0165	0.9585
4.6357	28.5432	697.6928	45.8426	-224.5514	-27.4706	621.3473	-3.6717	124.1082	-0.15383	46.5684	2.7571	130.2158	-0.0592	0.0182	-0.0073	-0.0462	0.0165	0.9585
4.6568	26.9762	669.4043	44.9228	-214.9613	-27.2334	595.594	-6.8478	149.56	-2.789	56.0173	6.8924	156.8747	-0.0592	0.0182	-0.0073	-0.0462	0.0165	0.9585
4.6779	25.5113	637.9756	43.6521	-204.3372	-26.674	567.1751	-9.8394	172.0198	-5.7866	64.3023	11.2801	180.3432	-0.0592	0.0182	-0.0073	-0.0462	0.0165	0.9585
4.6989	24.5106	605.8729	42.1866	-193.5193	-25.8148	538.1685	-12.5223	192.8921	-8.8025	71.9708	15.5308	202.0825	-0.0592	0.0182	-0.0073	-0.0462	0.0165	0.9585
4.72	24.1293	575.0555	40.632	-183.1796	-24.6969	510.2454	-14.8406	214.0104	-11.5596	79.7384	19.3606	223.9825	-0.0592	0.0182	-0.0073	-0.0462	0.0165	0.9585
4.7411	24.29	546.5119	39.062	-173.662	-23.4073	484.2805	-16.7099	236.6181	-13.9331	88.0926	22.629	247.2973	-0.0592	0.0182	-0.0073	-0.0462	0.0165	0.9585
4.7621	24.7783	520.2756	37.5283	-164.9859	-22.0596	460.3513	-18.0134	260.8993	-15.9618	97.1082	25.3409	272.1801	-0.0592	0.0182	-0.0073	-0.0462	0.0165	0.9585
4.7832	25.3591	495.8063	36.0579	-156.9738	-20.752	438.0428	-18.6618	286.0188	-17.7627	106.4649	27.5838	297.7378	-0.0592	0.0182	-0.0073	-0.0462	0.0165	0.9585
4.8043	25.8526	472.4653	34.665	-149.4098	-19.5552	416.8552	-18.6549	310.6966	-19.4267	115.6734	29.4471	322.6323	-0.0592	0.0182	-0.0073	-0.0462	0.0165	0.9585
4.8254	26.1706	449.8169	33.3563	-142.1412	-18.5049	396.4508	-18.0719	333.9223	-20.9911	124.348	30.9904	345.818	-0.0592	0.0182	-0.0073	-0.0462	0.0165	0.9585
4.8464	26.319	427.6967	32.1298	-135.1025	-17.5998	376.7001	-17.0297	355.3065	-22.4639	132.3413	32.2524	366.8926	-0.0592	0.0182	-0.0073	-0.0462	0.0165	0.9585
4.8675	26.3594	406.066	30.9727	-128.2693	-16.8103	357.5633	-15.6653	375.0351	-23.8367	139.727	33.2651	386.0514	-0.0592	0.0182	-0.0073	-0.0462	0.0165	0.9585
4.8886	26.3451	384.7679	29.8513	-121.5797	-16.0891	338.8878	-14.1479	393.6717	-25.1078	146.7213	34.0853	403.8889	-0.0592	0.0182	-0.0073	-0.0462	0.0165	0.9585
4.9096	26.2696	363.3042	28.7003	-114.8618	-15.3769	320.2121	-12.6648	412.0151	-26.3291	153.6233	34.8294	421.2446	-0.0592	0.0182	-0.0073	-0.0462	0.0165	0.9585
4.9307	26.0431	340.7057	27.4105	-107.7907	-14.5994	300.6489	-11.3844	431.0384	-27.632	160.7882	35.6814	439.1224	-0.0592	0.0182	-0.0073	-0.0462	0.0165	0.9585
4.9518	25.4808	315.6412	25.8386	-99.9241	-13.6811	278.9845	-10.4251	451.8784	-29.1979	168.6253	36.8557	458.6738	-0.0592	0.0182	-0.0073	-0.0462	0.0165	0.9585
4.9729	24.322	286.9138	23.8612	-90.8651	-12.5869	254.1246	-9.8495	475.7671	-31.2117	177.579	38.5552	481.1392	-0.0592	0.0182	-0.0073	-0.0462	0.0165	0.9585
4.9939	22.3233	254.1346	21.4495	-80.4815	-11.3559	225.6849	-9.6924	503.7871	-33.7985	188.0449	40.9177	507.6145	-0.0592	0.0182	-0.0073	-0.0462	0.0165	0.9585
5.015	19.3938	218.1476	18.7164	-69.0432	-10.1016	194.3573	-9.988	536.4176	-36.9507	200.2037	43.954	538.6086	-0.0592	0.0182	-0.0073	-0.0462	0.0165	0.9585
5.0361	15.6998	180.8792	15.889	-57.1745	-8.9578	161.7795	-10.7897	573.0871	-40.4912	213.8527	47.518	573.6191	-0.0592	0.0182	-0.0073	-0.0462	0.0165	0.9585
5.0571	11.6158	144.6443	13.1976	-45.6292	-8.0031	129.9439	-12.1742	612.0596	-44.111	228.3581	51.3469	611.0272	-0.0592	0.0182	-0.0073	-0.0462	0.0165	0.9585
